# xmcd
#
# Track frame offsets: 
#        225
#        17644
#        30055
#        43575
#        64459
#        75842
#        92719
#        106844
#        118979
#        137662
#        154836
#        167697
#        185255
#
# Disc length: 2777 seconds
#
# Revision: 0
# Processed by: cddbd v1.5.2PL0 Copyright (c) Steve Scherf et al.
# Submitted via: ExactAudioCopyFreeDBPlugin 1.0
#
DISCID=990ad60d
DTITLE=Maggie Mae - from the Heart of a Cowgirl
DYEAR=1900
DGENRE=Country
TTITLE0=Maggie Mae's Cafe
TTITLE1=Honky Tonk Saturday Night
TTITLE2=On the Wings of a Dove
TTITLE3=Taill in the Saddle
TTITLE4=San Antonio Stroll
TTITLE5=Grandpa
TTITLE6=God Must be a Cowboy at Heart
TTITLE7=Rose of San Antonio
TTITLE8=Walking Piece of Heaven
TTITLE9=Cowgirls Heart
TTITLE10=Whatever Happened to the Yodelling Cowgirls
TTITLE11=Rainbow Rider
TTITLE12=Travlin' Soldier
EXTD=
EXTT0=
EXTT1=
EXTT2=
EXTT3=
EXTT4=
EXTT5=
EXTT6=
EXTT7=
EXTT8=
EXTT9=
EXTT10=
EXTT11=
EXTT12=
PLAYORDER=
